<?xml version="1.0" encoding="UTF-8"?>
<svg width="512px" height="512px" viewBox="0 0 512 512" version="1.1" xmlns="http://www.w3.org/2000/svg" xmlns:xlink="http://www.w3.org/1999/xlink">
    <title>SkipLogo</title>
    <g id="SkipLogo" stroke="none" stroke-width="1" fill="none" fill-rule="evenodd">
        <g id="Layer_1" transform="translate(97.000000, 42.000000)" fill-rule="nonzero">
            <path d="M53.2517428,242.136545 L119.203788,297.098507 C121.549117,299.603595 124.180462,301.824667 127.059687,303.653223 C133.167711,307.54329 140.283147,309.767553 147.741801,309.981363 C150.98649,310.073908 154.297917,309.828186 157.618877,309.100593 C179.677044,304.281888 193.663213,282.419007 188.867683,260.268919 L188.829547,260.281683 L188.908996,260.169992 L99.7674317,185.866194 C77.4677399,167.267906 74.3724143,133.919912 92.8935207,111.520911 L108.856376,92.2109863 C117.821379,81.3577302 130.46963,74.6626018 144.446264,73.3574029 C158.416543,72.0426303 172.091272,76.296494 182.893132,85.3084303 L247.570819,139.217297 C249.839877,141.610694 252.359993,143.739221 255.115278,145.510335 C261.280506,149.461035 268.497635,151.720401 276.06434,151.915064 C279.27725,152.001227 282.541007,151.745931 285.817476,151.031103 C307.85022,146.215589 321.81732,124.419723 317.075815,102.295164 L317.167976,102.183472 L229.405643,29.0412699 C203.645161,7.56452375 171.099751,-2.54837502 137.721717,0.547084686 C104.365929,3.66169156 74.2166946,19.6208606 52.8195412,45.4950743 L36.8566864,64.8049987 C-7.30731778,118.228804 0.0496419798,197.778927 53.2517428,242.136545 Z" id="Path" fill="#448CCE"></path>
            <path d="M260.657062,182.611666 L193.789193,131.566819 L188.336435,127.400087 C181.226216,122.89276 172.75758,120.581799 163.980356,121.062454 C161.785255,121.18023 159.564704,121.428515 157.353696,121.909169 C134.985934,126.782558 120.825942,148.870373 125.686977,171.238304 L125.725153,171.231938 L125.661527,171.311516 L216.443272,240.598945 C239.510921,258.211263 243.958387,291.335028 226.356222,314.425532 L211.178211,334.313796 C202.661855,345.502537 190.286575,352.696435 176.358818,354.568122 C162.434242,356.446175 148.589198,352.772831 137.413271,344.251562 L67.1191354,290.593356 L66.9250757,290.450115 C59.2040463,284.418063 49.3960801,281.199907 39.1777256,281.769689 C36.998531,281.881099 34.8097925,282.13575 32.6146915,282.610038 C10.2532922,287.489794 -3.91624434,309.574425 0.960697625,331.94554 L1.07840594,331.920074 L93.1899373,402.238841 C115.296832,419.106304 141.746209,428 169.076809,428 C174.714083,428 180.395895,427.627573 186.071345,426.857252 C219.309629,422.397672 248.81306,405.234176 269.147967,378.565822 L284.329159,358.664824 C326.300128,303.59967 315.690473,224.629127 260.657062,182.611666 Z" id="Path" fill="#29A768"></path>
        </g>
    </g>
</svg>